<mxfile host="Electron" agent="Mozilla/5.0 (Windows NT 10.0; Win64; x64) AppleWebKit/537.36 (KHTML, like Gecko) draw.io/25.0.2 Chrome/128.0.6613.186 Electron/32.2.5 Safari/537.36" version="25.0.2">
  <diagram name="Страница — 1" id="C-drUPW33x2Zt6dfCn86">
    <mxGraphModel dx="1362" dy="884" grid="1" gridSize="10" guides="1" tooltips="1" connect="1" arrows="1" fold="1" page="1" pageScale="1" pageWidth="827" pageHeight="1169" math="0" shadow="0">
      <root>
        <mxCell id="0" />
        <mxCell id="1" parent="0" />
        <mxCell id="6_Jl2t81EVsBpzzJ7YuF-3" style="edgeStyle=orthogonalEdgeStyle;rounded=0;orthogonalLoop=1;jettySize=auto;html=1;" parent="1" source="6_Jl2t81EVsBpzzJ7YuF-1" target="6_Jl2t81EVsBpzzJ7YuF-2" edge="1">
          <mxGeometry relative="1" as="geometry">
            <Array as="points">
              <mxPoint x="400" y="70" />
              <mxPoint x="400" y="70" />
            </Array>
          </mxGeometry>
        </mxCell>
        <mxCell id="6_Jl2t81EVsBpzzJ7YuF-1" value="Начало" style="ellipse;whiteSpace=wrap;html=1;" parent="1" vertex="1">
          <mxGeometry x="340" width="120" height="40" as="geometry" />
        </mxCell>
        <mxCell id="6_Jl2t81EVsBpzzJ7YuF-24" style="edgeStyle=orthogonalEdgeStyle;rounded=0;orthogonalLoop=1;jettySize=auto;html=1;entryX=0.5;entryY=0;entryDx=0;entryDy=0;" parent="1" source="6_Jl2t81EVsBpzzJ7YuF-2" target="6_Jl2t81EVsBpzzJ7YuF-16" edge="1">
          <mxGeometry relative="1" as="geometry" />
        </mxCell>
        <mxCell id="6_Jl2t81EVsBpzzJ7YuF-2" value="int main()" style="shape=process;whiteSpace=wrap;html=1;backgroundOutline=1;" parent="1" vertex="1">
          <mxGeometry x="340" y="80" width="120" height="60" as="geometry" />
        </mxCell>
        <mxCell id="6_Jl2t81EVsBpzzJ7YuF-15" style="edgeStyle=orthogonalEdgeStyle;rounded=0;orthogonalLoop=1;jettySize=auto;html=1;" parent="1" source="6_Jl2t81EVsBpzzJ7YuF-4" edge="1">
          <mxGeometry relative="1" as="geometry">
            <mxPoint x="400" y="59.99999999999994" as="targetPoint" />
          </mxGeometry>
        </mxCell>
        <mxCell id="6_Jl2t81EVsBpzzJ7YuF-4" value="" style="strokeWidth=2;html=1;shape=mxgraph.flowchart.annotation_2;align=left;labelPosition=right;pointerEvents=1;" parent="1" vertex="1">
          <mxGeometry x="420" y="10" width="130" height="110" as="geometry" />
        </mxCell>
        <mxCell id="6_Jl2t81EVsBpzzJ7YuF-7" value="#include &amp;lt;iostream&amp;gt;" style="text;html=1;align=center;verticalAlign=middle;whiteSpace=wrap;rounded=0;" parent="1" vertex="1">
          <mxGeometry x="490" y="10" width="120" height="30" as="geometry" />
        </mxCell>
        <mxCell id="6_Jl2t81EVsBpzzJ7YuF-8" value="#include &amp;lt;clocale&amp;gt;" style="text;html=1;align=center;verticalAlign=middle;whiteSpace=wrap;rounded=0;" parent="1" vertex="1">
          <mxGeometry x="490" y="30" width="110" height="30" as="geometry" />
        </mxCell>
        <mxCell id="6_Jl2t81EVsBpzzJ7YuF-9" value="using namespace std;" style="text;html=1;align=center;verticalAlign=middle;whiteSpace=wrap;rounded=0;" parent="1" vertex="1">
          <mxGeometry x="490" y="70" width="130" height="30" as="geometry" />
        </mxCell>
        <mxCell id="6_Jl2t81EVsBpzzJ7YuF-26" style="edgeStyle=orthogonalEdgeStyle;rounded=0;orthogonalLoop=1;jettySize=auto;html=1;" parent="1" source="6_Jl2t81EVsBpzzJ7YuF-16" target="6_Jl2t81EVsBpzzJ7YuF-21" edge="1">
          <mxGeometry relative="1" as="geometry" />
        </mxCell>
        <mxCell id="6_Jl2t81EVsBpzzJ7YuF-16" value="const double eps = pow(10,-6);&lt;div&gt;int cnt = 0;&lt;/div&gt;&lt;div&gt;bool f = false;&lt;/div&gt;" style="rounded=0;whiteSpace=wrap;html=1;align=left;" parent="1" vertex="1">
          <mxGeometry x="315" y="160" width="170" height="50" as="geometry" />
        </mxCell>
        <mxCell id="6_Jl2t81EVsBpzzJ7YuF-19" value="double x0, a, b, x1, x;" style="text;html=1;align=center;verticalAlign=middle;whiteSpace=wrap;rounded=0;" parent="1" vertex="1">
          <mxGeometry x="495" y="90" width="120" height="30" as="geometry" />
        </mxCell>
        <mxCell id="6_Jl2t81EVsBpzzJ7YuF-27" style="edgeStyle=orthogonalEdgeStyle;rounded=0;orthogonalLoop=1;jettySize=auto;html=1;" parent="1" source="6_Jl2t81EVsBpzzJ7YuF-21" edge="1">
          <mxGeometry relative="1" as="geometry">
            <mxPoint x="400" y="290" as="targetPoint" />
          </mxGeometry>
        </mxCell>
        <mxCell id="6_Jl2t81EVsBpzzJ7YuF-21" value="cout &amp;lt;&amp;lt; &quot;Введите границы интервала [a,b] (a &amp;lt; b): &quot;;" style="shape=parallelogram;perimeter=parallelogramPerimeter;whiteSpace=wrap;html=1;fixedSize=1;" parent="1" vertex="1">
          <mxGeometry x="240.63" y="230" width="318.75" height="40" as="geometry" />
        </mxCell>
        <mxCell id="6_Jl2t81EVsBpzzJ7YuF-30" style="edgeStyle=orthogonalEdgeStyle;rounded=0;orthogonalLoop=1;jettySize=auto;html=1;" parent="1" source="6_Jl2t81EVsBpzzJ7YuF-28" target="6_Jl2t81EVsBpzzJ7YuF-29" edge="1">
          <mxGeometry relative="1" as="geometry" />
        </mxCell>
        <mxCell id="6_Jl2t81EVsBpzzJ7YuF-28" value="cin &amp;gt;&amp;gt; a &amp;gt;&amp;gt; b;" style="shape=parallelogram;perimeter=parallelogramPerimeter;whiteSpace=wrap;html=1;fixedSize=1;" parent="1" vertex="1">
          <mxGeometry x="340" y="290" width="120" height="30" as="geometry" />
        </mxCell>
        <mxCell id="6_Jl2t81EVsBpzzJ7YuF-31" style="edgeStyle=orthogonalEdgeStyle;rounded=0;orthogonalLoop=1;jettySize=auto;html=1;" parent="1" source="6_Jl2t81EVsBpzzJ7YuF-29" edge="1">
          <mxGeometry relative="1" as="geometry">
            <mxPoint x="400" y="390" as="targetPoint" />
          </mxGeometry>
        </mxCell>
        <mxCell id="6_Jl2t81EVsBpzzJ7YuF-29" value="cout &amp;lt;&amp;lt; &quot;Введите начальное приближенное значение корня: &quot;;" style="shape=parallelogram;perimeter=parallelogramPerimeter;whiteSpace=wrap;html=1;fixedSize=1;" parent="1" vertex="1">
          <mxGeometry x="210" y="340" width="380" height="30" as="geometry" />
        </mxCell>
        <mxCell id="6_Jl2t81EVsBpzzJ7YuF-35" style="edgeStyle=orthogonalEdgeStyle;rounded=0;orthogonalLoop=1;jettySize=auto;html=1;entryX=0.5;entryY=0;entryDx=0;entryDy=0;" parent="1" source="6_Jl2t81EVsBpzzJ7YuF-33" target="y3k4WUNpZN2hJ77Sc1Bg-1" edge="1">
          <mxGeometry relative="1" as="geometry">
            <mxPoint x="400" y="440" as="targetPoint" />
            <Array as="points" />
          </mxGeometry>
        </mxCell>
        <mxCell id="6_Jl2t81EVsBpzzJ7YuF-33" value="cin &amp;gt;&amp;gt; x0;" style="shape=parallelogram;perimeter=parallelogramPerimeter;whiteSpace=wrap;html=1;fixedSize=1;" parent="1" vertex="1">
          <mxGeometry x="340" y="390" width="120" height="30" as="geometry" />
        </mxCell>
        <mxCell id="6_Jl2t81EVsBpzzJ7YuF-36" value="{" style="text;html=1;align=center;verticalAlign=middle;whiteSpace=wrap;rounded=0;" parent="1" vertex="1">
          <mxGeometry x="354" y="140" width="60" height="20" as="geometry" />
        </mxCell>
        <mxCell id="qF4Yl-R-xC2ym-JYLEXO-3" value="#include &amp;lt;cmath&amp;gt;" style="text;html=1;align=center;verticalAlign=middle;whiteSpace=wrap;rounded=0;" parent="1" vertex="1">
          <mxGeometry x="490" y="50" width="110" height="30" as="geometry" />
        </mxCell>
        <mxCell id="y3k4WUNpZN2hJ77Sc1Bg-11" style="edgeStyle=orthogonalEdgeStyle;rounded=0;orthogonalLoop=1;jettySize=auto;html=1;entryX=0.5;entryY=0;entryDx=0;entryDy=0;" parent="1" source="y3k4WUNpZN2hJ77Sc1Bg-1" target="y3k4WUNpZN2hJ77Sc1Bg-4" edge="1">
          <mxGeometry relative="1" as="geometry" />
        </mxCell>
        <mxCell id="y3k4WUNpZN2hJ77Sc1Bg-13" style="edgeStyle=orthogonalEdgeStyle;rounded=0;orthogonalLoop=1;jettySize=auto;html=1;entryX=0.5;entryY=0;entryDx=0;entryDy=0;" parent="1" source="y3k4WUNpZN2hJ77Sc1Bg-1" target="y3k4WUNpZN2hJ77Sc1Bg-14" edge="1">
          <mxGeometry relative="1" as="geometry">
            <mxPoint x="400" y="690" as="targetPoint" />
            <Array as="points">
              <mxPoint x="640" y="485" />
              <mxPoint x="640" y="690" />
              <mxPoint x="400" y="690" />
            </Array>
          </mxGeometry>
        </mxCell>
        <mxCell id="y3k4WUNpZN2hJ77Sc1Bg-1" value="while (x0 &amp;gt; b || x0 &amp;lt; a)" style="rhombus;whiteSpace=wrap;html=1;" parent="1" vertex="1">
          <mxGeometry x="327.5" y="450" width="145" height="70" as="geometry" />
        </mxCell>
        <mxCell id="y3k4WUNpZN2hJ77Sc1Bg-12" style="edgeStyle=orthogonalEdgeStyle;rounded=0;orthogonalLoop=1;jettySize=auto;html=1;entryX=0.5;entryY=0;entryDx=0;entryDy=0;" parent="1" source="y3k4WUNpZN2hJ77Sc1Bg-4" target="y3k4WUNpZN2hJ77Sc1Bg-6" edge="1">
          <mxGeometry relative="1" as="geometry" />
        </mxCell>
        <mxCell id="y3k4WUNpZN2hJ77Sc1Bg-4" value="cout &amp;lt;&amp;lt; &quot;Начальное значение корня не входит в интервал [a,b].&quot; &amp;lt;&amp;lt; endl;" style="shape=parallelogram;perimeter=parallelogramPerimeter;whiteSpace=wrap;html=1;fixedSize=1;" parent="1" vertex="1">
          <mxGeometry x="180" y="540" width="440" height="30" as="geometry" />
        </mxCell>
        <mxCell id="y3k4WUNpZN2hJ77Sc1Bg-7" style="edgeStyle=orthogonalEdgeStyle;rounded=0;orthogonalLoop=1;jettySize=auto;html=1;" parent="1" source="y3k4WUNpZN2hJ77Sc1Bg-6" target="y3k4WUNpZN2hJ77Sc1Bg-8" edge="1">
          <mxGeometry relative="1" as="geometry">
            <mxPoint x="400.01" y="630" as="targetPoint" />
          </mxGeometry>
        </mxCell>
        <mxCell id="y3k4WUNpZN2hJ77Sc1Bg-6" value="cout &amp;lt;&amp;lt; &quot;Введите начальное значение корня: &quot;;" style="shape=parallelogram;perimeter=parallelogramPerimeter;whiteSpace=wrap;html=1;fixedSize=1;" parent="1" vertex="1">
          <mxGeometry x="250" y="590" width="300" height="30" as="geometry" />
        </mxCell>
        <mxCell id="y3k4WUNpZN2hJ77Sc1Bg-78" style="edgeStyle=orthogonalEdgeStyle;rounded=0;orthogonalLoop=1;jettySize=auto;html=1;" parent="1" source="y3k4WUNpZN2hJ77Sc1Bg-8" edge="1">
          <mxGeometry relative="1" as="geometry">
            <mxPoint x="400" y="430" as="targetPoint" />
            <Array as="points">
              <mxPoint x="400" y="680" />
              <mxPoint x="160" y="430" />
            </Array>
          </mxGeometry>
        </mxCell>
        <mxCell id="y3k4WUNpZN2hJ77Sc1Bg-8" value="cin &amp;gt;&amp;gt; x0;" style="shape=parallelogram;perimeter=parallelogramPerimeter;whiteSpace=wrap;html=1;fixedSize=1;" parent="1" vertex="1">
          <mxGeometry x="340.01" y="640" width="120" height="20" as="geometry" />
        </mxCell>
        <mxCell id="y3k4WUNpZN2hJ77Sc1Bg-15" style="edgeStyle=orthogonalEdgeStyle;rounded=0;orthogonalLoop=1;jettySize=auto;html=1;" parent="1" source="y3k4WUNpZN2hJ77Sc1Bg-14" target="y3k4WUNpZN2hJ77Sc1Bg-56" edge="1">
          <mxGeometry relative="1" as="geometry">
            <mxPoint x="680" y="860" as="targetPoint" />
            <Array as="points">
              <mxPoint x="695" y="745" />
            </Array>
          </mxGeometry>
        </mxCell>
        <mxCell id="y3k4WUNpZN2hJ77Sc1Bg-21" style="edgeStyle=orthogonalEdgeStyle;rounded=0;orthogonalLoop=1;jettySize=auto;html=1;entryX=0.5;entryY=0;entryDx=0;entryDy=0;" parent="1" source="y3k4WUNpZN2hJ77Sc1Bg-14" target="y3k4WUNpZN2hJ77Sc1Bg-18" edge="1">
          <mxGeometry relative="1" as="geometry">
            <mxPoint x="140" y="745" as="targetPoint" />
            <Array as="points">
              <mxPoint x="260" y="745" />
            </Array>
          </mxGeometry>
        </mxCell>
        <mxCell id="y3k4WUNpZN2hJ77Sc1Bg-14" value="if ((abs(g(a)) &amp;lt; 1) || (abs(g(b)) &amp;lt; 1))" style="rhombus;whiteSpace=wrap;html=1;" parent="1" vertex="1">
          <mxGeometry x="274.53" y="710" width="250.93" height="70" as="geometry" />
        </mxCell>
        <mxCell id="y3k4WUNpZN2hJ77Sc1Bg-33" style="edgeStyle=orthogonalEdgeStyle;rounded=0;orthogonalLoop=1;jettySize=auto;html=1;entryX=0.5;entryY=0;entryDx=0;entryDy=0;" parent="1" source="y3k4WUNpZN2hJ77Sc1Bg-18" target="y3k4WUNpZN2hJ77Sc1Bg-23" edge="1">
          <mxGeometry relative="1" as="geometry" />
        </mxCell>
        <mxCell id="y3k4WUNpZN2hJ77Sc1Bg-64" style="edgeStyle=orthogonalEdgeStyle;rounded=0;orthogonalLoop=1;jettySize=auto;html=1;" parent="1" source="y3k4WUNpZN2hJ77Sc1Bg-18" edge="1">
          <mxGeometry relative="1" as="geometry">
            <mxPoint x="640" y="1090" as="targetPoint" />
            <Array as="points">
              <mxPoint x="580" y="805" />
              <mxPoint x="580" y="1090" />
            </Array>
          </mxGeometry>
        </mxCell>
        <mxCell id="y3k4WUNpZN2hJ77Sc1Bg-18" value="while (f != true)" style="rhombus;whiteSpace=wrap;html=1;" parent="1" vertex="1">
          <mxGeometry x="200" y="780" width="120" height="50" as="geometry" />
        </mxCell>
        <mxCell id="y3k4WUNpZN2hJ77Sc1Bg-34" style="edgeStyle=orthogonalEdgeStyle;rounded=0;orthogonalLoop=1;jettySize=auto;html=1;entryX=0.5;entryY=0;entryDx=0;entryDy=0;" parent="1" source="y3k4WUNpZN2hJ77Sc1Bg-23" target="y3k4WUNpZN2hJ77Sc1Bg-26" edge="1">
          <mxGeometry relative="1" as="geometry" />
        </mxCell>
        <mxCell id="y3k4WUNpZN2hJ77Sc1Bg-23" value="x1 = g(x0);" style="rounded=0;whiteSpace=wrap;html=1;" parent="1" vertex="1">
          <mxGeometry x="180" y="850" width="160" height="30" as="geometry" />
        </mxCell>
        <mxCell id="y3k4WUNpZN2hJ77Sc1Bg-35" style="edgeStyle=orthogonalEdgeStyle;rounded=0;orthogonalLoop=1;jettySize=auto;html=1;entryX=0.5;entryY=0;entryDx=0;entryDy=0;" parent="1" source="y3k4WUNpZN2hJ77Sc1Bg-26" target="y3k4WUNpZN2hJ77Sc1Bg-29" edge="1">
          <mxGeometry relative="1" as="geometry">
            <mxPoint x="95" y="925" as="targetPoint" />
            <Array as="points">
              <mxPoint x="160" y="925" />
            </Array>
          </mxGeometry>
        </mxCell>
        <mxCell id="y3k4WUNpZN2hJ77Sc1Bg-47" style="edgeStyle=orthogonalEdgeStyle;rounded=0;orthogonalLoop=1;jettySize=auto;html=1;entryX=0.5;entryY=0;entryDx=0;entryDy=0;" parent="1" source="y3k4WUNpZN2hJ77Sc1Bg-26" target="y3k4WUNpZN2hJ77Sc1Bg-39" edge="1">
          <mxGeometry relative="1" as="geometry">
            <mxPoint x="455" y="925" as="targetPoint" />
            <Array as="points">
              <mxPoint x="455" y="925" />
            </Array>
          </mxGeometry>
        </mxCell>
        <mxCell id="y3k4WUNpZN2hJ77Sc1Bg-26" value="if (abs(x1 - x0) &amp;lt;= eps)" style="rhombus;whiteSpace=wrap;html=1;" parent="1" vertex="1">
          <mxGeometry x="170" y="900" width="180" height="50" as="geometry" />
        </mxCell>
        <mxCell id="y3k4WUNpZN2hJ77Sc1Bg-30" style="edgeStyle=orthogonalEdgeStyle;rounded=0;orthogonalLoop=1;jettySize=auto;html=1;" parent="1" source="y3k4WUNpZN2hJ77Sc1Bg-29" target="y3k4WUNpZN2hJ77Sc1Bg-31" edge="1">
          <mxGeometry relative="1" as="geometry">
            <mxPoint x="45" y="1000.0000000000002" as="targetPoint" />
          </mxGeometry>
        </mxCell>
        <mxCell id="y3k4WUNpZN2hJ77Sc1Bg-29" value="x = x1;" style="rounded=0;whiteSpace=wrap;html=1;" parent="1" vertex="1">
          <mxGeometry x="130" y="950" width="60" height="20" as="geometry" />
        </mxCell>
        <mxCell id="y3k4WUNpZN2hJ77Sc1Bg-42" style="edgeStyle=orthogonalEdgeStyle;rounded=0;orthogonalLoop=1;jettySize=auto;html=1;" parent="1" source="y3k4WUNpZN2hJ77Sc1Bg-31" target="y3k4WUNpZN2hJ77Sc1Bg-37" edge="1">
          <mxGeometry relative="1" as="geometry" />
        </mxCell>
        <mxCell id="y3k4WUNpZN2hJ77Sc1Bg-31" value="cout &lt;&lt; &quot;Корень уравнения x: &quot; &lt;&lt; x &lt;&lt; endl;" style="shape=parallelogram;perimeter=parallelogramPerimeter;whiteSpace=wrap;html=1;fixedSize=1;" parent="1" vertex="1">
          <mxGeometry x="20" y="990" width="280" height="40" as="geometry" />
        </mxCell>
        <mxCell id="y3k4WUNpZN2hJ77Sc1Bg-89" style="edgeStyle=orthogonalEdgeStyle;rounded=0;orthogonalLoop=1;jettySize=auto;html=1;" parent="1" source="y3k4WUNpZN2hJ77Sc1Bg-37" edge="1">
          <mxGeometry relative="1" as="geometry">
            <mxPoint x="260" y="1090" as="targetPoint" />
            <Array as="points">
              <mxPoint x="160" y="1090" />
            </Array>
          </mxGeometry>
        </mxCell>
        <mxCell id="y3k4WUNpZN2hJ77Sc1Bg-37" value="f = true;" style="rounded=0;whiteSpace=wrap;html=1;" parent="1" vertex="1">
          <mxGeometry x="130" y="1050" width="60" height="20" as="geometry" />
        </mxCell>
        <mxCell id="y3k4WUNpZN2hJ77Sc1Bg-46" style="edgeStyle=orthogonalEdgeStyle;rounded=0;orthogonalLoop=1;jettySize=auto;html=1;" parent="1" source="y3k4WUNpZN2hJ77Sc1Bg-39" edge="1">
          <mxGeometry relative="1" as="geometry">
            <mxPoint x="455" y="990" as="targetPoint" />
          </mxGeometry>
        </mxCell>
        <mxCell id="y3k4WUNpZN2hJ77Sc1Bg-39" value="x0 = x1;" style="rounded=0;whiteSpace=wrap;html=1;" parent="1" vertex="1">
          <mxGeometry x="425" y="950" width="60" height="20" as="geometry" />
        </mxCell>
        <mxCell id="y3k4WUNpZN2hJ77Sc1Bg-48" style="edgeStyle=orthogonalEdgeStyle;rounded=0;orthogonalLoop=1;jettySize=auto;html=1;" parent="1" target="y3k4WUNpZN2hJ77Sc1Bg-49" edge="1">
          <mxGeometry relative="1" as="geometry">
            <mxPoint x="455" y="1050" as="targetPoint" />
            <mxPoint x="455" y="1030" as="sourcePoint" />
          </mxGeometry>
        </mxCell>
        <mxCell id="y3k4WUNpZN2hJ77Sc1Bg-44" value="cout &lt;&lt; &quot;x&quot; &lt;&lt; cnt &lt;&lt; &quot;: &quot; &lt;&lt; x0 &lt;&lt; endl;" style="shape=parallelogram;perimeter=parallelogramPerimeter;whiteSpace=wrap;html=1;fixedSize=1;" parent="1" vertex="1">
          <mxGeometry x="320" y="990" width="240" height="40" as="geometry" />
        </mxCell>
        <mxCell id="y3k4WUNpZN2hJ77Sc1Bg-51" style="edgeStyle=orthogonalEdgeStyle;rounded=0;orthogonalLoop=1;jettySize=auto;html=1;" parent="1" source="y3k4WUNpZN2hJ77Sc1Bg-49" edge="1">
          <mxGeometry relative="1" as="geometry">
            <mxPoint x="260" y="1090" as="targetPoint" />
            <Array as="points">
              <mxPoint x="455" y="1090" />
            </Array>
          </mxGeometry>
        </mxCell>
        <mxCell id="y3k4WUNpZN2hJ77Sc1Bg-49" value="cnt+=1;" style="rounded=0;whiteSpace=wrap;html=1;" parent="1" vertex="1">
          <mxGeometry x="425" y="1050" width="60" height="20" as="geometry" />
        </mxCell>
        <mxCell id="y3k4WUNpZN2hJ77Sc1Bg-52" value="" style="endArrow=none;html=1;rounded=0;" parent="1" edge="1">
          <mxGeometry width="50" height="50" relative="1" as="geometry">
            <mxPoint x="260" y="1110" as="sourcePoint" />
            <mxPoint x="260" y="1090" as="targetPoint" />
          </mxGeometry>
        </mxCell>
        <mxCell id="y3k4WUNpZN2hJ77Sc1Bg-53" value="" style="endArrow=none;html=1;rounded=0;" parent="1" edge="1">
          <mxGeometry width="50" height="50" relative="1" as="geometry">
            <mxPoint x="10" y="1110" as="sourcePoint" />
            <mxPoint x="260" y="1110" as="targetPoint" />
          </mxGeometry>
        </mxCell>
        <mxCell id="y3k4WUNpZN2hJ77Sc1Bg-54" value="" style="endArrow=none;html=1;rounded=0;" parent="1" edge="1">
          <mxGeometry width="50" height="50" relative="1" as="geometry">
            <mxPoint x="10" y="1110" as="sourcePoint" />
            <mxPoint x="10" y="760" as="targetPoint" />
          </mxGeometry>
        </mxCell>
        <mxCell id="y3k4WUNpZN2hJ77Sc1Bg-55" value="" style="endArrow=classic;html=1;rounded=0;" parent="1" edge="1">
          <mxGeometry width="50" height="50" relative="1" as="geometry">
            <mxPoint x="10" y="760" as="sourcePoint" />
            <mxPoint x="260" y="760" as="targetPoint" />
          </mxGeometry>
        </mxCell>
        <mxCell id="y3k4WUNpZN2hJ77Sc1Bg-63" style="edgeStyle=orthogonalEdgeStyle;rounded=0;orthogonalLoop=1;jettySize=auto;html=1;" parent="1" source="y3k4WUNpZN2hJ77Sc1Bg-56" edge="1">
          <mxGeometry relative="1" as="geometry">
            <mxPoint x="640" y="1090" as="targetPoint" />
            <Array as="points">
              <mxPoint x="690" y="1090" />
              <mxPoint x="650" y="1090" />
            </Array>
          </mxGeometry>
        </mxCell>
        <mxCell id="y3k4WUNpZN2hJ77Sc1Bg-56" value="cout &amp;lt;&amp;lt; &quot;На интервале [a,b] \&lt;div&gt;корня не существует.&quot;;&lt;/div&gt;" style="shape=parallelogram;perimeter=parallelogramPerimeter;whiteSpace=wrap;html=1;fixedSize=1;" parent="1" vertex="1">
          <mxGeometry x="600" y="830" width="190" height="60" as="geometry" />
        </mxCell>
        <mxCell id="y3k4WUNpZN2hJ77Sc1Bg-67" value="return 0;" style="ellipse;whiteSpace=wrap;html=1;" parent="1" vertex="1">
          <mxGeometry x="590" y="1109" width="100" height="40" as="geometry" />
        </mxCell>
        <mxCell id="y3k4WUNpZN2hJ77Sc1Bg-68" value="" style="endArrow=classic;html=1;rounded=0;" parent="1" edge="1">
          <mxGeometry width="50" height="50" relative="1" as="geometry">
            <mxPoint x="640" y="1110" as="sourcePoint" />
            <mxPoint x="640" y="1110" as="targetPoint" />
            <Array as="points">
              <mxPoint x="640" y="1090" />
            </Array>
          </mxGeometry>
        </mxCell>
        <mxCell id="y3k4WUNpZN2hJ77Sc1Bg-69" value="{" style="text;html=1;align=center;verticalAlign=middle;whiteSpace=wrap;rounded=0;" parent="1" vertex="1">
          <mxGeometry x="220" y="830" width="60" height="10" as="geometry" />
        </mxCell>
        <mxCell id="y3k4WUNpZN2hJ77Sc1Bg-71" value="{" style="text;html=1;align=center;verticalAlign=middle;whiteSpace=wrap;rounded=0;" parent="1" vertex="1">
          <mxGeometry x="220" y="740" width="60" height="10" as="geometry" />
        </mxCell>
        <mxCell id="y3k4WUNpZN2hJ77Sc1Bg-72" value="{" style="text;html=1;align=center;verticalAlign=middle;whiteSpace=wrap;rounded=0;" parent="1" vertex="1">
          <mxGeometry x="120" y="930" width="60" height="10" as="geometry" />
        </mxCell>
        <mxCell id="y3k4WUNpZN2hJ77Sc1Bg-73" value="{" style="text;html=1;align=center;verticalAlign=middle;whiteSpace=wrap;rounded=0;" parent="1" vertex="1">
          <mxGeometry x="412.5" y="930" width="60" height="10" as="geometry" />
        </mxCell>
        <mxCell id="y3k4WUNpZN2hJ77Sc1Bg-76" value="{" style="text;html=1;align=center;verticalAlign=middle;whiteSpace=wrap;rounded=0;" parent="1" vertex="1">
          <mxGeometry x="354" y="520" width="60" height="10" as="geometry" />
        </mxCell>
        <mxCell id="y3k4WUNpZN2hJ77Sc1Bg-79" value="}" style="text;html=1;align=center;verticalAlign=middle;whiteSpace=wrap;rounded=0;" parent="1" vertex="1">
          <mxGeometry x="380" y="660" width="60" height="20" as="geometry" />
        </mxCell>
        <mxCell id="y3k4WUNpZN2hJ77Sc1Bg-82" value="}" style="text;html=1;align=center;verticalAlign=middle;whiteSpace=wrap;rounded=0;" parent="1" vertex="1">
          <mxGeometry x="620" y="1095" width="60" height="10" as="geometry" />
        </mxCell>
        <mxCell id="y3k4WUNpZN2hJ77Sc1Bg-83" value="}" style="text;html=1;align=center;verticalAlign=middle;whiteSpace=wrap;rounded=0;" parent="1" vertex="1">
          <mxGeometry x="140" y="1070" width="60" height="20" as="geometry" />
        </mxCell>
        <mxCell id="y3k4WUNpZN2hJ77Sc1Bg-86" value="}" style="text;html=1;align=center;verticalAlign=middle;whiteSpace=wrap;rounded=0;" parent="1" vertex="1">
          <mxGeometry x="435" y="1070" width="60" height="20" as="geometry" />
        </mxCell>
        <mxCell id="y3k4WUNpZN2hJ77Sc1Bg-87" value="}" style="text;html=1;align=center;verticalAlign=middle;whiteSpace=wrap;rounded=0;" parent="1" vertex="1">
          <mxGeometry x="620" y="1149" width="60" height="20" as="geometry" />
        </mxCell>
        <mxCell id="y3k4WUNpZN2hJ77Sc1Bg-90" value="}" style="text;html=1;align=center;verticalAlign=middle;whiteSpace=wrap;rounded=0;" parent="1" vertex="1">
          <mxGeometry x="240" y="1090" width="60" height="20" as="geometry" />
        </mxCell>
        <mxCell id="y3k4WUNpZN2hJ77Sc1Bg-91" value="1" style="text;html=1;align=center;verticalAlign=middle;whiteSpace=wrap;rounded=0;" parent="1" vertex="1">
          <mxGeometry x="384" y="517.5" width="60" height="15" as="geometry" />
        </mxCell>
        <mxCell id="y3k4WUNpZN2hJ77Sc1Bg-92" value="1" style="text;html=1;align=center;verticalAlign=middle;whiteSpace=wrap;rounded=0;" parent="1" vertex="1">
          <mxGeometry x="240" y="725" width="60" height="15" as="geometry" />
        </mxCell>
        <mxCell id="y3k4WUNpZN2hJ77Sc1Bg-93" value="1" style="text;html=1;align=center;verticalAlign=middle;whiteSpace=wrap;rounded=0;" parent="1" vertex="1">
          <mxGeometry x="240" y="827.5" width="60" height="15" as="geometry" />
        </mxCell>
        <mxCell id="y3k4WUNpZN2hJ77Sc1Bg-94" value="1" style="text;html=1;align=center;verticalAlign=middle;whiteSpace=wrap;rounded=0;" parent="1" vertex="1">
          <mxGeometry x="140" y="910" width="60" height="15" as="geometry" />
        </mxCell>
        <mxCell id="y3k4WUNpZN2hJ77Sc1Bg-95" value="0" style="text;html=1;align=center;verticalAlign=middle;whiteSpace=wrap;rounded=0;" parent="1" vertex="1">
          <mxGeometry x="330" y="910" width="60" height="15" as="geometry" />
        </mxCell>
        <mxCell id="y3k4WUNpZN2hJ77Sc1Bg-96" value="0" style="text;html=1;align=center;verticalAlign=middle;whiteSpace=wrap;rounded=0;" parent="1" vertex="1">
          <mxGeometry x="300" y="790" width="60" height="15" as="geometry" />
        </mxCell>
        <mxCell id="eSq0lDuVqMgqHX30cPeD-1" style="edgeStyle=orthogonalEdgeStyle;rounded=0;orthogonalLoop=1;jettySize=auto;html=1;exitX=1;exitY=1;exitDx=0;exitDy=0;" edge="1" parent="1" source="y3k4WUNpZN2hJ77Sc1Bg-97">
          <mxGeometry relative="1" as="geometry">
            <mxPoint x="554.7931034482758" y="750" as="targetPoint" />
          </mxGeometry>
        </mxCell>
        <mxCell id="y3k4WUNpZN2hJ77Sc1Bg-97" value="0" style="text;html=1;align=center;verticalAlign=middle;whiteSpace=wrap;rounded=0;" parent="1" vertex="1">
          <mxGeometry x="495" y="725" width="60" height="15" as="geometry" />
        </mxCell>
        <mxCell id="y3k4WUNpZN2hJ77Sc1Bg-98" value="0" style="text;html=1;align=center;verticalAlign=middle;whiteSpace=wrap;rounded=0;" parent="1" vertex="1">
          <mxGeometry x="455" y="470" width="60" height="15" as="geometry" />
        </mxCell>
      </root>
    </mxGraphModel>
  </diagram>
</mxfile>
